<mxfile host="Electron" agent="Mozilla/5.0 (Windows NT 10.0; Win64; x64) AppleWebKit/537.36 (KHTML, like Gecko) draw.io/24.7.17 Chrome/128.0.6613.36 Electron/32.0.1 Safari/537.36" version="24.7.17">
  <diagram name="Seite-1" id="hWl0XE7IlbMe6UK_ToIO">
    <mxGraphModel dx="1183" dy="685" grid="1" gridSize="10" guides="1" tooltips="1" connect="1" arrows="1" fold="1" page="1" pageScale="1" pageWidth="1169" pageHeight="827" math="0" shadow="0">
      <root>
        <mxCell id="0" />
        <mxCell id="1" parent="0" />
        <mxCell id="gXxUTqT4Vw17cjgIKku8-1" value="" style="image;html=1;image=img/lib/clip_art/computers/Server_Rack_128x128.png" parent="1" vertex="1">
          <mxGeometry x="120" y="120" width="120" height="120" as="geometry" />
        </mxCell>
        <mxCell id="4A_YxCzLD8Sp4hi2m_Rt-1" value="" style="shape=image;imageAspect=0;aspect=fixed;verticalLabelPosition=bottom;verticalAlign=top;image=data:image/svg+xml,PHN2ZyB4bWxucz0iaHR0cDovL3d3dy53My5vcmcvMjAwMC9zdmciIHZlcnNpb249IjEuMSIgaGVpZ2h0PSIxODQzLjc1IiB3aWR0aD0iMTQxMi41IiB2aWV3Qm94PSIwIDAgNDUuMiA1OSIgaWQ9IkxheWVyXzEiPiYjeGE7ICA8ZGVmcyBpZD0iZGVmczUiLz4mI3hhOyAgJiN4YTsgIDxzdHlsZSBpZD0ic3R5bGUxIj4mI3hhOyAgICAgICAgLnN0MCB7JiN4YTsgICAgICAgICAgICBmaWxsOiAjMDdhNWRlJiN4YTsgICAgICAgIH0mI3hhOyYjeGE7ICAgICAgICAuc3QxIHsmI3hhOyAgICAgICAgICAgIGZpbGw6ICMzZWJlYjAmI3hhOyAgICAgICAgfSYjeGE7JiN4YTsgICAgICAgIC5zdDIgeyYjeGE7ICAgICAgICAgICAgb3BhY2l0eTogLjI2OyYjeGE7ICAgICAgICAgICAgZW5hYmxlLWJhY2tncm91bmQ6IG5ldyYjeGE7ICAgICAgICB9JiN4YTsmI3hhOyAgICAgICAgLnN0MiwmI3hhOyAgICAgICAgLnN0MyB7JiN4YTsgICAgICAgICAgICBmaWxsOiAjMzUzNTM1JiN4YTsgICAgICAgIH0mI3hhOyYjeGE7ICAgICAgICAuc3Q0IHsmI3hhOyAgICAgICAgICAgIGZpbGw6IG5vbmUmI3hhOyAgICAgICAgfSYjeGE7ICAgIDwvc3R5bGU+JiN4YTsgIDxwYXRoIGlkPSJwYXRoMSIgZD0iTSAyMS40LDM0LjYgSCAwIFYgMCBoIDIxLjQgYyA5LjYsMCAxNy4zLDcuNyAxNy4zLDE3LjMgMCw5LjYgLTcuNywxNy4zIC0xNy4zLDE3LjMgeiIgY2xhc3M9InN0MCIvPiYjeGE7ICA8cGF0aCBpZD0icGF0aDIiIGQ9Ik0gMjcuOSw1OSBIIDAgViAyNC40IGggMjcuOSBjIDkuNiwwIDE3LjMsNy43IDE3LjMsMTcuMyAwLDkuNiAtNy43LDE3LjMgLTE3LjMsMTcuMyB6IiBjbGFzcz0ic3QxIi8+JiN4YTsgIDxwYXRoIGlkPSJwYXRoMyIgZD0ibSA0MSwzMC40IGMgLTMuMiwtMy43IC03LjksLTYgLTEzLjEsLTYgSCAwIHYgMTYgaCAyNS45IGMgOS4yLDAgMTUuNiwtOS41IDE1LjEsLTEwIHoiIGNsYXNzPSJzdDIiLz4mI3hhOyAgPHBhdGggaWQ9InBhdGg0IiBkPSJtIDIxLjQsMzQuNiBjIDYuMiwwIDExLjYsLTMuMyAxNC43LC04LjIgLTAuNCwtMC4yIC0wLjgsLTAuNCAtMS4zLC0wLjYgLTAuMSwwIC0wLjIsLTAuMSAtMC4zLC0wLjEgLTAuNCwtMC4yIC0wLjgsLTAuMyAtMS4zLC0wLjUgaCAtMC4xIGMgLTAuMSwwIC0wLjEsMCAtMC4yLC0wLjEgbCAtMS4yLC0wLjMgaCAtMC4yIGMgLTAuMSwwIC0wLjIsMCAtMC4yLC0wLjEgLTAuNCwtMC4xIC0wLjgsLTAuMSAtMS4yLC0wLjIgaCAtMC42IGMgLTAuNSwwIC0wLjksLTAuMSAtMS40LC0wLjEgSCAwIHYgMTAuMiB6IiBjbGFzcz0ic3QzIi8+JiN4YTsgIDxwYXRoIGlkPSJwYXRoNSIgZD0ibSAtMTcuNCwtMTAuNSBoIDgwIHYgODAgaCAtODAgeiIgY2xhc3M9InN0NCIvPiYjeGE7PC9zdmc+;" vertex="1" parent="1">
          <mxGeometry x="360" y="120" width="91.84" height="120" as="geometry" />
        </mxCell>
        <mxCell id="4A_YxCzLD8Sp4hi2m_Rt-2" value="" style="shape=image;imageAspect=0;aspect=fixed;verticalLabelPosition=bottom;verticalAlign=top;image=data:image/svg+xml,PHN2ZyB4bWxucz0iaHR0cDovL3d3dy53My5vcmcvMjAwMC9zdmciIHZpZXdCb3g9IjAgMCA3My4yIDgwIiBoZWlnaHQ9IjE4Ny41IiB3aWR0aD0iMTcxLjU2MjUiPiYjeGE7ICAgPHBhdGggaWQ9InBhdGgxIiBmaWxsPSIjMDBhOWU1IiBkPSJNIDU1LDI4IEggMzQuMSBjIDAuMSwwLjUgMC4zLDEgMC40LDEuNCAwLjcsMi40IDEuMSw0LjkgMS4zLDcuNSAwLjEsMSAwLjEsMi4xIDAuMSwzLjEgMCwxIDAsMi4xIC0wLjEsMy4xIC0wLjIsMi42IC0wLjYsNS4xIC0xLjMsNy41IC0wLjEsMC41IC0wLjMsMSAtMC40LDEuNCBIIDU1IEMgNjEuNiw1MiA2Ni45LDQ2LjYgNjYuOSw0MCA2Ni45LDMzLjQgNjEuNiwyOCA1NSwyOCBaIi8+JiN4YTsgICA8cGF0aCBpZD0icGF0aDIiIGZpbGw9IiMzNTM1MzUiIGQ9Im0gMzUuOCw0My4xIGMgMC4xLC0xIDAuMSwtMi4xIDAuMSwtMy4xIDAsLTEgMCwtMi4xIC0wLjEsLTMuMSAtMC4yLC0yLjYgLTAuNiwtNS4xIC0xLjMsLTcuNSAtMC4xLC0wLjUgLTAuMywtMSAtMC40LC0xLjQgSCAxLjggQyAwLjYsMzEuOCAwLDM1LjggMCw0MCBjIDAsNC4yIDAuNiw4LjIgMS44LDEyIGggMzIuMyBjIDAuMSwtMC41IDAuMywtMSAwLjQsLTEuNCAwLjcsLTIuNCAxLjEsLTQuOSAxLjMsLTcuNSB6Ii8+JiN4YTsgICA8cGF0aCBpZD0icGF0aDMiIGZpbGw9IiMwMGJmYjMiIGQ9Im0gNTguNiw1NiBoIC0yNiBjIC0wLjgsMS44IC0xLjcsMy41IC0yLjcsNS4xIC0xLjUsMi41IC0zLjMsNC43IC01LjMsNi44IC0wLjcsMC43IC0xLjQsMS4zIC0yLjEsMiAtMS40LDEuMyAtMywyLjQgLTQuNiwzLjUgNi4zLDQuMiAxMy45LDYuNiAyMiw2LjYgQyA1My44LDgwIDY2LDcyLjkgNzMuMiw2Mi4yIDY5LjUsNTguNCA2NC4zLDU2IDU4LjYsNTYgWiIvPiYjeGE7ICAgPHBhdGggaWQ9InBhdGg0IiBmaWxsPSIjMDE5YjhmIiBkPSJtIDI5LjksNjEuMSBjIDEsLTEuNiAxLjksLTMuMyAyLjcsLTUuMSBIIDMuMyBjIDMuMSw3LjEgOC4yLDEzLjIgMTQuNywxNy40IDEuNiwtMS4xIDMuMSwtMi4yIDQuNiwtMy41IDAuNywtMC42IDEuNCwtMS4zIDIuMSwtMiAxLjksLTIgMy43LC00LjMgNS4yLC02LjggeiIvPiYjeGE7ICAgPHBhdGggaWQ9InBhdGg1IiBmaWxsPSIjZjliMTEwIiBkPSJNIDI0LjYsMTIuMSBDIDIzLjksMTEuNCAyMy4yLDEwLjggMjIuNSwxMC4xIDIxLjEsOC44IDE5LjUsNy43IDE3LjksNi42IDExLjUsMTAuOCA2LjQsMTYuOSAzLjIsMjQgaCAyOS4zIGMgLTAuOCwtMS44IC0xLjcsLTMuNSAtMi43LC01LjEgLTEuNCwtMi41IC0zLjIsLTQuOCAtNS4yLC02LjggeiIvPiYjeGE7ICAgPHBhdGggaWQ9InBhdGg2IiBmaWxsPSIjZmVkMTBhIiBkPSJtIDM5LjksMCBjIC04LjEsMCAtMTUuNywyLjQgLTIyLDYuNiAxLjYsMS4xIDMuMSwyLjIgNC42LDMuNSAwLjcsMC42IDEuNCwxLjMgMi4xLDIgMiwyLjEgMy44LDQuMyA1LjMsNi44IDEsMS42IDEuOSwzLjMgMi43LDUuMSBoIDI2IEMgNjQuMywyNCA2OS41LDIxLjYgNzMuMiwxNy44IDY2LDcuMSA1My44LDAgMzkuOSwwIFoiLz4mI3hhOzwvc3ZnPg==;" vertex="1" parent="1">
          <mxGeometry x="585" y="120" width="109.79" height="120" as="geometry" />
        </mxCell>
        <mxCell id="4A_YxCzLD8Sp4hi2m_Rt-3" value="" style="shape=image;imageAspect=0;aspect=fixed;verticalLabelPosition=bottom;verticalAlign=top;image=data:image/svg+xml,PHN2ZyB4bWxucz0iaHR0cDovL3d3dy53My5vcmcvMjAwMC9zdmciIHZlcnNpb249IjEuMSIgaGVpZ2h0PSIxNzE4Ljc1IiB3aWR0aD0iMTMyNSIgdmlld0JveD0iMCAwIDQyLjQgNTUiIGlkPSJMYXllcl8xIj4mI3hhOyAgPGRlZnMgaWQ9ImRlZnM1Ii8+JiN4YTsgICYjeGE7ICA8c3R5bGUgaWQ9InN0eWxlMSI+JiN4YTsgICAgICAgIC5zdDAgeyYjeGE7ICAgICAgICAgICAgZmlsbDogI2U5NDc4YiYjeGE7ICAgICAgICB9JiN4YTsmI3hhOyAgICAgICAgLnN0MSB7JiN4YTsgICAgICAgICAgICBmaWxsOiAjM2ViZWIwJiN4YTsgICAgICAgIH0mI3hhOyYjeGE7ICAgICAgICAuc3QyIHsmI3hhOyAgICAgICAgICAgIGZpbGw6ICMzN2E1OTUmI3hhOyAgICAgICAgfSYjeGE7JiN4YTsgICAgICAgIC5zdDMgeyYjeGE7ICAgICAgICAgICAgZmlsbDogIzM1MzUzNSYjeGE7ICAgICAgICB9JiN4YTsmI3hhOyAgICAgICAgLnN0NCB7JiN4YTsgICAgICAgICAgICBmaWxsOiBub25lJiN4YTsgICAgICAgIH0mI3hhOyAgICA8L3N0eWxlPiYjeGE7ICA8cGF0aCBpZD0icGF0aDEiIGQ9Im0gMC44LDIwLjYgYyA3LjMsMCAxNC4yLDEuOSAyMC4yLDUuMSBMIDQyLjQsMCBIIDAgViA1MSAyMC42IFoiIGNsYXNzPSJzdDAiLz4mI3hhOyAgPHBhdGggaWQ9InBhdGgyIiBkPSJNIDIxLDI1LjcgMCw1MSB2IDQgSCA0Mi4zIEMgMzkuOSw0Mi40IDMxLjksMzEuNyAyMSwyNS43IFoiIGNsYXNzPSJzdDEiLz4mI3hhOyAgPHBhdGggaWQ9InBhdGgzIiBkPSJNIDIxLDI1LjcgMCw1MSB2IDQgSCA3LjUgTCAyNy45LDMwLjQgYyAwLDAgLTEuNCwtMS4xIC0zLjMsLTIuNSAtMS40LC0xIC0zLjYsLTIuMiAtMy42LC0yLjIgeiIgY2xhc3M9InN0MiIvPiYjeGE7ICA8cGF0aCBpZD0icGF0aDQiIGQ9Ik0gMC44LDIwLjYgSCAwIFYgNTEgTCAyMSwyNS43IEMgMTUsMjIuNSA4LjEsMjAuNiAwLjgsMjAuNiBaIiBjbGFzcz0ic3QzIi8+JiN4YTsgIDxwYXRoIGlkPSJwYXRoNSIgZD0ibSAtMTguOCwtMTIuNSBoIDgwIHYgODAgaCAtODAgeiIgY2xhc3M9InN0NCIvPiYjeGE7PC9zdmc+;" vertex="1" parent="1">
          <mxGeometry x="830" y="120" width="92.54" height="120" as="geometry" />
        </mxCell>
        <mxCell id="4A_YxCzLD8Sp4hi2m_Rt-4" value="" style="html=1;shadow=0;dashed=0;align=center;verticalAlign=middle;shape=mxgraph.arrows2.arrow;dy=0.6;dx=40;notch=0;" vertex="1" parent="1">
          <mxGeometry x="240" y="165" width="100" height="30" as="geometry" />
        </mxCell>
        <mxCell id="4A_YxCzLD8Sp4hi2m_Rt-7" value="" style="html=1;shadow=0;dashed=0;align=center;verticalAlign=middle;shape=mxgraph.arrows2.arrow;dy=0.6;dx=40;notch=0;" vertex="1" parent="1">
          <mxGeometry x="470" y="165" width="100" height="30" as="geometry" />
        </mxCell>
        <mxCell id="4A_YxCzLD8Sp4hi2m_Rt-8" value="" style="html=1;shadow=0;dashed=0;align=center;verticalAlign=middle;shape=mxgraph.arrows2.arrow;dy=0.6;dx=40;notch=0;" vertex="1" parent="1">
          <mxGeometry x="720" y="165" width="100" height="30" as="geometry" />
        </mxCell>
        <mxCell id="4A_YxCzLD8Sp4hi2m_Rt-9" value="Collects data" style="text;html=1;align=center;verticalAlign=middle;whiteSpace=wrap;rounded=0;" vertex="1" parent="1">
          <mxGeometry x="240" y="130" width="110" height="30" as="geometry" />
        </mxCell>
        <mxCell id="4A_YxCzLD8Sp4hi2m_Rt-11" value="Send data to ElasticSearch" style="text;html=1;align=center;verticalAlign=middle;whiteSpace=wrap;rounded=0;" vertex="1" parent="1">
          <mxGeometry x="460" y="135" width="110" height="30" as="geometry" />
        </mxCell>
        <mxCell id="4A_YxCzLD8Sp4hi2m_Rt-12" value="Visualize data from ElasticSearch" style="text;html=1;align=center;verticalAlign=middle;whiteSpace=wrap;rounded=0;" vertex="1" parent="1">
          <mxGeometry x="715" y="130" width="110" height="30" as="geometry" />
        </mxCell>
      </root>
    </mxGraphModel>
  </diagram>
</mxfile>
